<?xml version="1.0" standalone="no"?>
<!DOCTYPE svg PUBLIC "-//W3C//DTD SVG 20010904//EN"
 "http://www.w3.org/TR/2001/REC-SVG-20010904/DTD/svg10.dtd">
<svg version="1.0" xmlns="http://www.w3.org/2000/svg"
 width="1024.000000pt" height="1024.000000pt" viewBox="0 0 1024.000000 1024.000000"
 preserveAspectRatio="xMidYMid meet">

<g transform="translate(0.000000,1024.000000) scale(0.100000,-0.100000)"
fill="#000000" stroke="none">
<path d="M4675 10233 c-665 -66 -1223 -221 -1790 -497 -408 -199 -720 -400
-1075 -696 -160 -134 -476 -450 -610 -610 -434 -522 -738 -1062 -945 -1685
-110 -330 -176 -616 -228 -990 -20 -147 -22 -200 -22 -635 0 -435 2 -488 22
-635 52 -374 118 -660 228 -990 255 -764 660 -1420 1235 -1995 429 -431 855
-734 1400 -998 511 -248 994 -392 1595 -475 147 -20 200 -22 635 -22 435 0
488 2 635 22 601 83 1084 227 1595 475 544 263 967 564 1395 993 409 409 710
825 964 1332 261 523 419 1041 504 1658 20 147 22 200 22 635 0 435 -2 488
-22 635 -52 374 -118 660 -228 990 -255 765 -664 1424 -1240 2000 -427 428
-850 729 -1396 994 -506 245 -989 389 -1584 473 -132 18 -205 21 -600 23 -247
1 -468 1 -490 -2z m746 -883 c171 -13 397 -44 548 -75 195 -40 191 -34 46 -72
-233 -61 -586 -187 -818 -292 l-68 -30 -117 51 c-261 113 -576 225 -789 279
-51 13 -93 26 -93 30 0 21 500 99 720 112 134 8 447 6 571 -3z m-1662 -376
c262 -44 566 -129 848 -236 l132 -50 -157 -90 c-184 -106 -423 -258 -585 -373
l-115 -82 -128 -23 c-256 -44 -639 -131 -861 -196 l-23 -6 22 53 c40 95 173
361 243 484 109 192 277 442 359 533 24 27 27 27 265 -14z m3049 -66 c193
-258 398 -614 540 -939 l20 -46 -87 24 c-247 68 -548 135 -780 173 l-135 22
-125 90 c-166 118 -380 255 -570 364 l-153 88 43 19 c94 40 491 167 629 201
123 30 356 75 465 89 83 11 79 13 153 -85z m-3959 -288 c-122 -213 -246 -473
-339 -713 -22 -56 -44 -108 -48 -115 -4 -7 -72 -39 -152 -71 -266 -107 -475
-207 -690 -330 -68 -39 -125 -70 -126 -68 -5 5 169 260 247 362 226 296 524
592 830 826 88 67 342 239 346 235 2 -1 -29 -58 -68 -126z m4661 2 c203 -138
403 -305 596 -497 186 -186 276 -287 406 -460 72 -96 198 -278 220 -320 10
-18 10 -19 -13 -4 -161 105 -667 347 -886 424 l-51 18 -69 171 c-74 186 -237
524 -327 678 -31 54 -56 101 -56 104 0 8 18 -4 180 -114z m-2307 -148 c78 -40
307 -167 391 -217 l53 -32 -522 0 -523 0 92 54 c111 66 418 231 429 231 4 0
40 -16 80 -36z m-267 -611 c-25 -50 -87 -254 -117 -387 -26 -113 -79 -401 -79
-431 0 -5 -10 6 -22 25 -179 289 -325 494 -436 612 l-64 68 27 10 c150 57 498
126 648 129 l58 1 -15 -27z m649 -2 c129 -22 223 -44 320 -72 132 -40 127 -30
53 -107 -112 -117 -274 -341 -408 -564 -27 -45 -50 -78 -50 -71 0 29 -53 319
-79 433 -31 131 -93 335 -118 384 l-15 29 93 -7 c52 -3 144 -15 204 -25z
m-427 -98 c70 -178 130 -447 182 -819 l22 -150 -60 -110 c-33 -60 -86 -162
-118 -226 -32 -65 -61 -118 -64 -118 -3 0 -59 102 -124 227 l-118 226 27 186
c31 219 84 490 121 616 31 107 84 245 94 245 4 0 21 -35 38 -77z m-1848 -76
c0 -2 -87 -83 -193 -180 -106 -98 -276 -267 -377 -377 -101 -109 -186 -198
-188 -195 -11 11 151 561 171 582 15 14 160 60 387 123 165 46 200 54 200 47z
m3770 -32 c74 -19 203 -56 287 -82 l153 -46 40 -126 c51 -162 131 -453 128
-463 -2 -4 -79 76 -173 178 -139 152 -457 463 -565 553 -14 11 -20 20 -15 21
6 0 71 -16 145 -35z m-2929 -82 c127 -138 297 -383 464 -667 l87 -150 -16
-155 c-9 -86 -19 -202 -22 -258 -4 -57 -9 -103 -11 -103 -6 0 -403 332 -403
337 0 2 -18 74 -40 159 -53 205 -105 460 -124 612 -18 136 -21 292 -7 292 5 0
37 -30 72 -67z m2004 -208 c-25 -194 -76 -438 -155 -736 -9 -31 -41 -63 -214
-207 l-203 -170 -7 97 c-3 53 -13 167 -22 254 l-16 158 77 132 c175 298 355
554 478 679 l72 73 3 -75 c2 -41 -4 -133 -13 -205z m-2236 -75 c19 -123 50
-287 82 -419 16 -68 29 -125 29 -127 0 -2 -33 20 -72 49 -205 151 -505 335
-619 379 -33 13 -59 26 -59 30 0 13 205 172 315 244 61 39 153 95 205 123 l95
50 7 -127 c3 -70 11 -161 17 -202z m2630 215 c91 -54 283 -191 375 -269 l28
-24 -96 -45 c-162 -77 -430 -244 -608 -381 l-35 -26 34 147 c53 234 84 428 90
575 l6 137 50 -25 c27 -14 97 -54 156 -89z m-4248 -212 c-58 -199 -128 -505
-172 -758 -23 -138 -34 -176 -55 -205 -145 -199 -345 -510 -459 -713 -33 -58
-63 -107 -66 -107 -3 0 -23 46 -44 103 -128 344 -209 644 -255 947 -29 184
-35 164 83 252 204 151 422 285 661 406 144 72 319 152 324 147 2 -2 -6 -34
-17 -72z m5730 31 c321 -141 770 -407 943 -557 l39 -33 -12 -95 c-37 -296
-126 -644 -252 -987 -27 -74 -52 -138 -55 -144 -3 -5 -44 57 -89 137 -128 223
-265 438 -400 626 l-62 86 -27 159 c-43 249 -132 640 -192 837 -3 9 -3 17 -1
17 2 0 51 -21 108 -46z m-998 -310 c-52 -153 -274 -504 -508 -806 l-60 -76
-125 -38 c-69 -20 -176 -54 -239 -75 -63 -22 -116 -37 -118 -36 -1 2 11 44 27
93 17 49 53 161 79 249 l48 160 134 103 c243 186 527 367 689 438 41 18 78 33
82 33 4 1 0 -19 -9 -45z m-3735 -10 c155 -71 395 -225 662 -425 l145 -109 19
-68 c11 -37 45 -147 77 -245 39 -122 52 -177 43 -173 -29 11 -361 115 -419
132 -33 9 -66 21 -74 27 -49 40 -333 445 -440 628 -51 88 -131 256 -131 275 0
8 38 -6 118 -42z m4041 -209 c86 -114 168 -240 232 -361 l51 -94 -86 0 c-146
0 -371 -34 -659 -101 -71 -16 -131 -29 -133 -29 -3 0 15 26 39 58 135 177 292
428 370 591 l50 104 33 -39 c19 -22 65 -79 103 -129z m-4281 96 c43 -111 221
-402 383 -625 25 -35 36 -57 26 -53 -34 13 -336 77 -457 97 -69 11 -184 23
-257 27 l-132 6 45 87 c25 48 80 141 123 206 75 115 227 314 240 314 3 0 16
-26 29 -59z m2352 -610 l12 -173 -69 -63 -68 -63 -36 76 -36 77 86 172 c48 96
88 167 92 160 4 -6 12 -90 19 -186z m-427 -228 l-38 -81 -64 58 -64 58 12 179
c7 98 15 185 18 193 3 9 40 -56 90 -155 l85 -170 -39 -82z m912 225 c-52 -168
-121 -365 -129 -370 -6 -4 -43 -18 -82 -32 l-72 -24 -6 30 c-3 17 -6 59 -6 93
l0 63 147 126 c80 69 148 126 149 126 2 0 2 -6 -1 -12z m-1391 -141 l136 -118
0 -53 c0 -29 -3 -67 -6 -84 l-6 -30 -72 24 c-39 14 -77 28 -84 32 -17 11 -134
364 -117 355 7 -5 74 -61 149 -126z m-1609 18 c246 -32 749 -152 771 -183 6
-9 81 -100 166 -202 l155 -185 -86 -7 c-47 -4 -162 -14 -254 -23 l-168 -17
-117 68 c-297 172 -566 359 -700 489 l-77 74 97 1 c53 0 149 -7 213 -15z
m4745 6 c0 -13 -116 -119 -211 -193 -115 -89 -302 -213 -499 -331 l-165 -98
-55 5 c-189 20 -379 36 -416 36 -24 0 -45 3 -47 8 -3 4 67 93 154 197 128 152
167 193 197 203 131 46 550 139 747 166 115 16 295 20 295 7z m-6610 -146 c53
-208 152 -493 262 -750 l64 -151 -34 -74 c-100 -221 -220 -554 -282 -785 -18
-66 -36 -124 -40 -128 -8 -9 -63 264 -85 423 -47 349 -47 789 0 1140 21 150
77 432 85 423 4 -4 17 -48 30 -98z m8265 -150 c77 -432 85 -904 24 -1345 -18
-128 -59 -349 -76 -405 -4 -13 -19 28 -43 115 -67 246 -178 560 -278 786 l-41
92 55 122 c99 221 227 586 279 792 9 34 19 70 22 78 8 19 26 -55 58 -235z
m-6774 129 c79 -87 308 -258 537 -402 l142 -90 -42 -7 c-276 -41 -572 -110
-726 -168 l-91 -34 5 51 c11 107 36 275 55 361 26 121 81 315 89 315 4 0 17
-12 31 -26z m5263 -74 c39 -131 65 -249 87 -393 16 -114 25 -227 17 -227 -2 0
-47 16 -102 35 -157 56 -376 108 -638 150 l-107 18 95 58 c225 139 433 290
543 395 36 34 69 59 73 56 3 -4 18 -45 32 -92z m-2647 -27 c14 -36 14 -38 -8
-56 -20 -16 -24 -16 -37 -3 -14 13 -13 20 3 56 10 22 20 40 22 40 2 0 11 -17
20 -37z m-957 -68 l146 -48 28 -79 c15 -44 25 -82 22 -85 -4 -4 -44 -9 -89
-11 l-83 -4 -115 133 c-159 186 -150 171 -98 155 24 -7 109 -34 189 -61z
m1963 -82 l-119 -138 -50 -3 c-27 -1 -65 1 -85 5 l-37 8 29 81 29 80 173 56
c94 31 173 55 175 53 3 -2 -49 -66 -115 -142z m-704 70 c1 -18 -2 -33 -6 -33
-5 0 -18 -3 -30 -6 -18 -5 -25 -1 -32 17 -7 20 -4 30 22 57 28 29 32 31 39 15
3 -10 7 -33 7 -50z m-577 -25 c-3 -14 -10 -18 -26 -14 -11 3 -24 6 -28 6 -10
0 -10 64 -1 73 13 13 61 -43 55 -65z m-232 -143 c0 -22 -17 -35 -46 -35 -14 0
-44 55 -44 79 0 6 20 3 45 -6 36 -12 45 -20 45 -38z m1053 10 c-16 -47 -22
-51 -54 -35 -34 19 -23 47 24 63 23 9 43 16 44 16 1 1 -5 -19 -14 -44z m-3665
-117 c-8 -162 -8 -680 1 -838 4 -69 6 -126 5 -128 -3 -6 -156 260 -228 398
l-75 145 77 150 c67 128 218 395 225 395 1 0 -1 -55 -5 -122z m6339 -128 c45
-80 98 -180 119 -223 l38 -77 -43 -88 c-44 -89 -219 -403 -243 -435 -11 -15
-12 6 -5 125 5 79 6 320 4 537 l-4 393 27 -43 c15 -24 63 -109 107 -189z
m-3115 16 c163 -73 253 -285 184 -431 -30 -64 -127 -158 -189 -184 -151 -64
-356 17 -423 167 -53 117 -20 293 70 381 90 87 249 117 358 67z m-784 -16 c10
-27 9 -30 -14 -36 -19 -5 -32 0 -54 21 -36 34 -31 45 20 45 33 0 39 -4 48 -30z
m1402 23 c0 -19 -53 -60 -71 -56 -22 6 -24 16 -9 44 8 13 21 19 45 19 19 0 35
-3 35 -7z m-1665 -79 c65 -74 67 -68 -33 -111 l-64 -27 -169 84 c-93 47 -169
88 -169 91 0 7 209 24 321 27 l55 2 59 -66z m2115 55 c85 -7 158 -15 162 -18
4 -4 -68 -44 -161 -91 l-169 -84 -85 39 -86 38 57 63 c66 73 48 70 282 53z
m-2722 -123 c75 -41 176 -94 225 -117 48 -24 87 -46 87 -49 0 -3 -26 -18 -57
-34 -32 -15 -134 -69 -228 -118 l-170 -91 -165 22 c-325 45 -606 106 -780 170
-108 40 -120 47 -100 61 59 38 358 123 569 162 138 24 415 66 454 67 16 1 82
-28 165 -73z m3412 48 c336 -48 596 -107 771 -175 43 -17 79 -34 79 -39 0 -11
-129 -60 -245 -94 -130 -38 -399 -91 -619 -122 l-191 -27 -120 66 c-66 36
-168 89 -227 118 -60 30 -108 56 -108 59 0 3 41 26 91 50 50 25 150 77 223
117 72 40 140 72 151 72 11 1 99 -11 195 -25z m-1105 -191 c19 -9 35 -20 35
-24 0 -4 -19 -14 -42 -23 -40 -17 -42 -16 -62 3 -19 20 -19 21 -1 41 22 24 25
24 70 3z m-1495 -8 c10 -12 10 -18 0 -30 -15 -18 -31 -19 -65 -3 -31 14 -32
22 -2 36 31 15 53 14 67 -3z m-221 -146 c39 -18 71 -35 71 -38 -1 -3 -27 -35
-59 -70 l-58 -64 -187 13 c-102 7 -186 16 -186 19 0 7 320 170 336 170 6 1 43
-13 83 -30z m2134 -50 c171 -86 173 -87 166 -93 -2 -2 -91 -10 -197 -17 l-193
-12 -59 64 -59 64 77 37 c42 20 83 37 90 37 7 1 85 -36 175 -80z m-3763 -65
c130 -40 288 -75 490 -110 85 -14 156 -27 157 -28 1 -1 -24 -17 -55 -36 -200
-118 -444 -293 -572 -409 -45 -40 -83 -72 -85 -69 -8 8 -66 227 -89 337 -21
102 -30 165 -51 348 l-5 43 53 -22 c28 -12 99 -36 157 -54z m5338 -16 c-10
-116 -33 -258 -58 -368 -19 -81 -70 -260 -77 -269 -1 -2 -29 20 -60 50 -117
111 -302 248 -529 390 l-123 76 77 13 c140 21 375 70 487 99 85 22 288 92 290
100 1 0 -3 -41 -7 -91z m-3430 3 c9 -5 11 -17 6 -34 -6 -25 -10 -27 -55 -27
-27 0 -49 3 -49 7 0 4 12 20 27 35 27 29 48 34 71 19z m1374 -18 c37 -36 35
-43 -12 -43 -33 0 -42 4 -49 23 -7 16 -5 25 7 35 21 16 22 16 54 -15z m-4210
-240 c116 -207 269 -444 447 -694 30 -41 36 -65 66 -235 45 -248 123 -587 181
-777 7 -21 3 -20 -177 64 -302 141 -556 291 -806 477 -72 53 -103 82 -103 97
0 70 62 388 115 590 54 206 187 595 204 595 4 0 37 -53 73 -117z m7174 -178
c95 -285 177 -640 200 -861 l7 -61 -79 -60 c-108 -82 -265 -186 -411 -272
-116 -68 -521 -271 -572 -286 -21 -6 -23 -5 -17 11 36 92 150 592 190 824 l23
136 110 160 c142 203 257 384 358 562 l80 141 24 -52 c12 -29 52 -137 87 -242z
m-4993 246 l188 -16 -49 -55 c-38 -43 -279 -335 -288 -348 -1 -2 -107 -29
-235 -61 -306 -77 -507 -111 -689 -118 l-145 -5 45 47 c129 134 372 307 720
513 l125 73 70 -7 c39 -3 155 -14 258 -23z m3076 -38 c299 -173 564 -358 699
-488 l77 -74 -97 -1 c-194 0 -602 74 -928 170 l-65 19 -163 195 c-89 107 -162
198 -162 201 0 3 26 5 58 6 31 0 136 8 232 18 96 10 188 19 204 20 20 1 68
-21 145 -66z m-2495 -4 c5 -4 -48 -157 -56 -164 -8 -7 -372 -124 -375 -121 -2
2 53 70 123 151 l127 147 88 -4 c49 -2 91 -6 93 -9z m1759 -132 c66 -76 118
-140 115 -142 -6 -7 -341 105 -354 119 -6 6 -23 43 -37 83 l-26 72 32 4 c18 2
59 4 91 3 l59 -1 120 -138z m-1519 117 c12 -31 5 -41 -36 -57 -23 -9 -43 -15
-45 -14 -1 2 5 22 14 45 12 32 21 42 38 42 13 0 26 -7 29 -16z m1052 -26 c14
-42 12 -43 -35 -27 -32 11 -41 35 -19 57 21 21 40 9 54 -30z m-821 -139 c5
-16 -1 -29 -24 -53 l-31 -31 0 47 c0 45 4 50 42 57 4 0 10 -9 13 -20z m563 15
c19 -6 22 -13 22 -55 0 -27 -3 -49 -6 -49 -4 0 -21 13 -38 28 -28 24 -31 32
-23 55 9 29 11 30 45 21z m-281 -66 l21 -23 -22 -44 -23 -43 -21 48 c-19 45
-19 50 -5 67 21 22 25 22 50 -5z m-502 -60 c14 -111 14 -110 -140 -244 -77
-67 -141 -119 -143 -115 -1 3 24 84 56 180 l58 174 75 27 c40 15 77 28 81 29
4 0 10 -23 13 -51z m1137 -27 c19 -46 116 -351 112 -351 -2 0 -67 54 -144 120
l-140 120 0 58 c0 31 3 73 6 93 l6 37 75 -25 c59 -20 77 -31 85 -52z m-1517
-68 c-9 -25 -110 -346 -129 -414 l-17 -57 -167 -125 c-226 -169 -452 -316
-597 -387 -66 -32 -131 -62 -143 -65 -21 -6 -23 -4 -17 17 18 65 137 284 233
429 109 165 306 434 333 455 8 6 91 34 184 62 94 28 202 63 240 76 86 30 89
30 80 9z m726 -68 l39 -85 -87 -173 -87 -172 -12 140 c-7 77 -13 169 -13 205
l-1 65 58 52 c31 29 58 52 60 53 2 0 21 -38 43 -85z m1187 26 c103 -33 212
-67 243 -76 l57 -16 125 -167 c210 -282 378 -550 437 -701 11 -29 19 -55 17
-58 -9 -9 -143 53 -257 118 -157 90 -297 184 -501 336 l-166 124 -17 62 c-16
58 -119 388 -132 422 -4 8 -3 15 1 15 4 0 91 -27 193 -59z m-809 -10 l64 -58
-13 -192 c-7 -105 -16 -193 -19 -196 -4 -2 -46 74 -94 170 l-86 174 36 80 c20
45 39 81 42 81 3 -1 35 -27 70 -59z m-1929 -233 c-175 -246 -324 -490 -371
-608 -13 -33 -27 -60 -30 -60 -6 0 -77 85 -146 175 -63 82 -155 228 -209 330
l-56 105 74 0 c144 0 391 37 633 94 77 19 144 34 148 35 5 0 -15 -32 -43 -71z
m3475 37 c222 -52 433 -85 582 -92 l132 -6 -46 -90 c-81 -157 -330 -511 -368
-524 -6 -2 -21 25 -35 59 -47 120 -226 410 -377 616 -30 39 -50 72 -46 72 5 0
76 -16 158 -35z m-2245 -43 c0 -42 17 -239 36 -422 5 -55 5 -56 -76 -195 -174
-296 -375 -579 -499 -700 l-51 -49 0 96 c0 180 47 457 138 806 l47 184 195
163 c107 90 198 164 203 164 4 1 7 -21 7 -47z m1147 -149 l170 -143 32 -119
c91 -345 140 -617 148 -821 l5 -145 -52 50 c-28 28 -81 86 -117 130 -80 98
-285 406 -383 575 l-73 125 17 170 c9 94 19 214 23 267 l6 97 27 -22 c15 -12
104 -86 197 -164z m-623 -40 c35 -71 89 -175 121 -233 l57 -105 -17 -125 c-41
-304 -96 -574 -151 -745 -32 -99 -64 -175 -74 -175 -8 0 -58 122 -84 205 -47
151 -105 444 -142 724 l-18 133 23 42 c13 22 66 123 118 224 52 100 97 182 99
182 2 0 33 -57 68 -127z m-1178 -380 c-64 -270 -106 -542 -106 -685 l0 -80
-105 56 c-109 58 -246 145 -350 224 -83 64 -165 133 -165 141 0 3 27 17 60 30
121 48 415 229 625 384 33 24 62 43 64 41 1 -1 -9 -51 -23 -111z m2476 -91
c140 -94 327 -201 406 -232 34 -13 62 -28 62 -32 0 -13 -166 -140 -296 -227
-108 -72 -299 -181 -317 -181 -2 0 -7 57 -10 128 -4 70 -16 183 -27 252 -18
109 -78 402 -96 469 -6 20 7 13 82 -41 49 -35 137 -97 196 -136z m-3553 -383
c102 -102 227 -222 276 -267 l90 -82 -151 40 c-83 22 -214 60 -291 85 l-139
45 -47 147 c-39 124 -117 406 -117 423 0 3 44 -42 97 -100 53 -58 180 -189
282 -291z m4717 220 c-24 -90 -62 -218 -83 -284 l-39 -119 -114 -37 c-102 -33
-354 -104 -435 -123 -25 -6 -15 7 65 80 160 148 395 382 523 521 66 73 122
131 124 130 1 -2 -17 -77 -41 -168z m-2870 -164 c41 -233 105 -473 159 -597 6
-16 1 -18 -41 -18 -66 0 -237 24 -356 49 -90 19 -308 78 -317 87 -2 1 27 36
64 76 117 128 294 375 416 581 l34 58 8 -48 c5 -26 20 -111 33 -188z m901 -60
c95 -142 200 -279 278 -363 l56 -60 -33 -11 c-211 -65 -496 -120 -632 -121
-42 0 -47 2 -41 18 67 153 132 422 191 781 l5 34 48 -79 c26 -44 84 -133 128
-199z m-3993 -82 c178 -98 413 -209 621 -292 l150 -60 66 -163 c116 -286 213
-488 348 -722 29 -49 50 -90 48 -92 -7 -7 -322 213 -442 309 -378 304 -745
718 -976 1102 l-24 40 30 -19 c17 -11 97 -57 179 -103z m6991 -19 c-102 -155
-221 -314 -338 -449 -135 -157 -409 -422 -567 -548 -121 -97 -440 -320 -447
-313 -2 1 27 54 63 117 120 208 292 575 373 795 l23 62 111 42 c243 93 583
256 777 372 41 25 77 44 79 42 2 -2 -31 -56 -74 -120z m-5666 -509 c223 -61
612 -146 783 -170 38 -6 75 -27 198 -114 186 -132 399 -268 594 -379 l149 -86
-99 -38 c-326 -127 -802 -250 -1059 -273 l-70 -6 -76 103 c-176 237 -299 443
-443 740 -105 215 -123 258 -110 258 4 0 64 -16 133 -35z m4356 13 c-4 -13
-54 -119 -111 -236 -144 -297 -263 -495 -443 -740 l-76 -103 -65 6 c-173 16
-477 80 -715 151 -170 51 -448 155 -438 164 4 5 69 43 143 86 187 107 405 246
584 371 147 104 153 107 231 120 248 42 684 139 835 187 61 20 62 19 55 -6z
m-2521 -289 c168 -12 377 -12 568 1 84 5 182 12 217 14 l64 4 -45 -28 c-95
-59 -249 -146 -385 -217 l-142 -74 -138 70 c-130 66 -407 223 -427 242 -10 9
30 7 288 -12z m377 -710 c242 -106 497 -197 753 -270 77 -21 141 -41 143 -43
6 -5 -305 -64 -427 -81 -388 -53 -892 -45 -1275 21 -158 27 -296 57 -288 64 5
3 64 21 133 40 215 57 600 196 794 286 28 13 56 24 62 24 6 0 53 -19 105 -41z"/>
</g>
</svg>
